<svg width="677" height="95" viewBox="0 0 677 95" fill="none" xmlns="http://www.w3.org/2000/svg">
<path opacity="0.4" d="M33.7362 0H132.237C137.602 0 142.543 2.86594 145.226 7.50797L163.962 40.0021C166.644 44.6441 166.644 50.376 163.962 55.0181L145.226 87.5122C142.543 92.1542 137.602 95.0202 132.237 95.0202H33.7362C28.3715 95.0202 23.4303 92.1542 20.7479 87.5122L2.01177 54.9979C-0.67059 50.3559 -0.67059 44.624 2.01177 39.9819L20.7479 7.50797C23.4303 2.86594 28.3715 0 33.7362 0Z" fill="white"/>
<path opacity="0.4" d="M33.7362 0H103.054C108.419 0 113.36 2.86594 116.042 7.50797L134.778 40.0021C137.461 44.6441 137.461 50.376 134.778 55.0181L116.042 87.5122C113.36 92.1542 108.419 95.0202 103.054 95.0202H33.7362C28.3715 95.0202 23.4303 92.1542 20.7479 87.5122L2.01177 54.9979C-0.67059 50.3559 -0.67059 44.624 2.01177 39.9819L20.7479 7.50797C23.4303 2.86594 28.3715 0 33.7362 0Z" fill="white"/>
<path d="M33.7362 0H73.8506C79.2153 0 84.1565 2.86594 86.8389 7.50797L105.575 40.0021C108.257 44.6441 108.257 50.376 105.575 55.0181L86.8389 87.5122C84.1565 92.1542 79.2153 95.0202 73.8506 95.0202H33.7362C28.3715 95.0202 23.4303 92.1542 20.7479 87.5122L2.01177 54.9979C-0.67059 50.3559 -0.67059 44.624 2.01177 39.9819L20.7479 7.50797C23.4303 2.86594 28.3715 0 33.7362 0Z" fill="white"/>
<path d="M463.849 28.9218H443.015V88.3801C443.015 90.2772 441.483 91.8313 439.567 91.8313H434.827C432.931 91.8313 431.378 90.2974 431.378 88.3801V28.9218H410.444C408.548 28.9218 406.995 27.3879 406.995 25.4706V22.1606C406.995 20.2634 408.528 18.7094 410.444 18.7094H463.829C465.725 18.7094 467.278 20.2432 467.278 22.1606V25.4706C467.278 27.3677 465.745 28.9218 463.829 28.9218H463.849Z" fill="white"/>
<path d="M260.878 22.1606V88.3599C260.878 90.257 259.345 91.8111 257.429 91.8111H252.69C250.794 91.8111 249.241 90.2772 249.241 88.3599V59.5793H212.414V88.3599C212.414 90.257 210.881 91.8111 208.965 91.8111H204.327C202.431 91.8111 200.878 90.2772 200.878 88.3599V22.1606C200.878 20.2634 202.411 18.7094 204.327 18.7094H208.965C210.861 18.7094 212.414 20.2432 212.414 22.1606V49.2862H249.241V22.1606C249.241 20.2634 250.774 18.7094 252.69 18.7094H257.429C259.325 18.7094 260.878 20.2432 260.878 22.1606Z" fill="white"/>
<path d="M275.883 25.6724V20.102C275.883 18.2048 277.416 16.6508 279.332 16.6508H283.769C285.665 16.6508 287.218 18.1846 287.218 20.102V25.6724C287.218 27.5696 285.685 29.1237 283.769 29.1237H279.332C277.436 29.1237 275.883 27.5898 275.883 25.6724ZM275.883 88.3599V41.4149C275.883 39.5178 277.416 37.9637 279.332 37.9637H283.769C285.665 37.9637 287.218 39.4976 287.218 41.4149V88.3599C287.218 90.2571 285.685 91.8111 283.769 91.8111H279.332C277.436 91.8111 275.883 90.2773 275.883 88.3599Z" fill="white"/>
<path d="M314.949 89.591L297.12 43.0497C296.253 40.7892 297.927 38.3673 300.327 38.3673H304.623C306.075 38.3673 307.365 39.2755 307.87 40.648L322.391 81.3565L336.892 40.648C337.376 39.2755 338.687 38.3673 340.139 38.3673H343.608C346.028 38.3673 347.682 40.7892 346.814 43.0497L328.986 89.591C328.482 90.9231 327.191 91.8111 325.779 91.8111H318.176C316.744 91.8111 315.473 90.9231 314.969 89.591H314.949Z" fill="white"/>
<path d="M379.265 92.8405C375.09 92.8405 371.299 92.1139 367.89 90.6405C364.502 89.1672 361.557 87.1691 359.097 84.6059C356.636 82.0629 354.72 79.1162 353.389 75.8264C352.058 72.5366 351.393 69.0047 351.393 65.2507C351.393 60.2252 352.562 55.6235 354.882 51.4659C357.221 47.2881 360.468 43.9378 364.643 41.3947C368.818 38.8517 373.719 37.5802 379.346 37.5802C384.972 37.5802 389.813 38.8517 393.907 41.3947C397.981 43.9378 401.167 47.2881 403.426 51.4255C405.685 55.563 406.815 60.0234 406.815 64.7865C406.815 64.9681 406.815 65.2709 406.774 65.6342C406.673 67.4506 405.161 68.8634 403.346 68.8634H363.413C363.614 71.9715 364.502 74.7164 366.035 77.0374C367.567 79.3584 369.544 81.195 371.944 82.5271C374.344 83.8591 376.905 84.505 379.668 84.505C382.694 84.505 385.537 83.7582 388.26 82.2445C390.196 81.1748 391.668 79.863 392.717 78.2887C393.504 77.0979 395.057 76.6337 396.428 77.0374L399.11 77.8043C401.43 78.4704 402.418 81.2959 400.925 83.1931C400.119 84.2224 399.191 85.1912 398.142 86.0994C395.783 88.1984 392.979 89.8332 389.752 91.0442C386.525 92.235 383.036 92.8405 379.265 92.8405ZM363.11 61.3352H395.621C395.42 58.3078 394.532 55.6235 392.999 53.3227C391.446 51.0017 389.51 49.1853 387.13 47.8734C384.751 46.5615 382.149 45.8955 379.265 45.8955C376.381 45.8955 373.86 46.5615 371.5 47.8734C369.141 49.1853 367.204 51.0017 365.692 53.3227C364.179 55.6437 363.332 58.3078 363.11 61.3352Z" fill="white"/>
<path d="M501.745 45.0478C501.745 46.5211 500.636 47.7523 499.163 47.9137C495.816 48.2569 492.79 49.2054 490.068 50.7393C486.679 52.6567 484.259 55.3612 482.807 58.873V88.3599C482.807 90.2571 481.274 91.8111 479.358 91.8111H474.921C473.026 91.8111 471.473 90.2772 471.473 88.3599V41.8186C471.473 39.9214 473.005 38.3673 474.921 38.3673H478.531C480.427 38.3673 481.98 39.9012 481.98 41.8186V50.0128C483.836 46.2991 486.256 43.3323 489.281 41.1122C492.306 38.8921 495.493 37.6609 498.841 37.4591C498.841 37.4591 498.841 37.4591 498.861 37.4591C500.434 37.4591 501.725 38.7508 501.725 40.3251V45.0276L501.745 45.0478Z" fill="white"/>
<path d="M505.96 76.2099C505.96 72.8192 506.928 69.8322 508.884 67.2891C510.841 64.7461 513.523 62.7682 516.952 61.3756C520.38 59.983 524.353 59.2766 528.891 59.2766C531.291 59.2766 533.752 59.4583 536.253 59.8014C538.753 60.1445 540.972 60.6894 542.888 61.4563V58.0858C542.888 54.3722 541.758 51.4659 539.5 49.3669C537.241 47.2679 533.974 46.2184 529.718 46.2184C526.693 46.2184 523.849 46.7431 521.187 47.8128C519.452 48.499 517.658 49.3669 515.782 50.4164C514.068 51.3852 511.889 50.7393 511.002 48.9834L510.256 47.4899C509.429 45.8551 510.054 43.857 511.627 42.9488C514.269 41.4149 516.931 40.2039 519.594 39.3361C523.204 38.1655 526.975 37.5802 530.968 37.5802C538.168 37.5802 543.836 39.4572 547.99 43.2314C552.145 47.0055 554.222 52.3338 554.222 59.2564V79.096C554.222 80.3877 554.444 81.2959 554.888 81.8409C555.049 82.0427 555.271 82.2243 555.553 82.3656C556.562 82.8904 557.207 83.9399 557.207 85.0701V89.147C557.207 90.7213 556.017 92.0735 554.464 92.2148C554.464 92.2148 554.464 92.2148 554.444 92.2148C553.617 92.2753 552.932 92.3157 552.387 92.3157C549.987 92.3157 548.172 91.7304 546.942 90.5598C545.711 89.3892 544.985 88.0168 544.784 86.4425L544.481 83.3546C542.142 86.382 539.157 88.703 535.526 90.358C531.896 92.013 528.226 92.8203 524.515 92.8203C520.804 92.8203 517.758 92.0937 514.955 90.6204C512.152 89.1672 509.953 87.1691 508.38 84.6463C506.807 82.1234 506.021 79.318 506.021 76.1695L505.96 76.2099ZM540.205 79.4391C541.032 78.5713 541.678 77.6832 542.162 76.8154C542.646 75.9475 542.888 75.1604 542.888 74.4944V68.4194C540.972 67.6726 538.935 67.1277 536.817 66.7442C534.7 66.3809 532.602 66.1791 530.545 66.1791C526.431 66.1791 523.083 66.9864 520.521 68.601C517.96 70.2156 516.669 72.4559 516.669 75.2815C516.669 76.8356 517.093 78.3089 517.96 79.7419C518.807 81.1547 520.057 82.3051 521.671 83.1931C523.284 84.061 525.281 84.505 527.681 84.505C530.081 84.505 532.521 84.0408 534.78 83.0922C537.039 82.1436 538.854 80.9327 540.226 79.4391H540.205Z" fill="white"/>
<path d="M592.26 92.8405C588.085 92.8405 584.293 92.1139 580.885 90.6406C577.476 89.1672 574.552 87.149 572.091 84.5656C569.631 81.9822 567.715 79.0153 566.384 75.6852C565.053 72.355 564.387 68.8231 564.387 65.0893C564.387 60.0638 565.537 55.4621 567.836 51.3247C570.135 47.1872 573.362 43.8369 577.496 41.3342C581.651 38.8114 586.572 37.5601 592.26 37.5601C597.947 37.5601 602.525 38.771 606.599 41.2131C609.241 42.7874 611.419 44.7047 613.154 46.945C614.586 48.8018 613.658 51.5467 611.419 52.2733L607.063 53.6659C605.651 54.1099 604.179 53.5851 603.251 52.4145C602.202 51.1027 600.912 49.9926 599.399 49.1449C597.16 47.8734 594.72 47.2478 592.038 47.2478C589.013 47.2478 586.29 48.0147 583.87 49.5284C581.429 51.0421 579.513 53.1411 578.102 55.8254C576.69 58.4895 575.984 61.5977 575.984 65.1094C575.984 68.6212 576.71 71.5477 578.142 74.2926C579.574 77.0374 581.51 79.197 583.95 80.7914C586.391 82.3858 589.113 83.173 592.118 83.173C593.974 83.173 595.769 82.8501 597.523 82.2042C599.278 81.5584 600.791 80.6703 602.102 79.5199C602.747 78.9548 603.312 78.3493 603.776 77.7236C604.643 76.553 606.216 76.1494 607.608 76.5732L611.762 77.8044C614.041 78.4906 615.009 81.2556 613.577 83.1528C612.771 84.2225 611.843 85.2316 610.794 86.16C608.495 88.2187 605.792 89.8535 602.666 91.0442C599.54 92.235 596.071 92.8405 592.219 92.8405H592.26Z" fill="white"/>
<path d="M649.234 92.8405C645.06 92.8405 641.268 92.1139 637.86 90.6405C634.471 89.1672 631.527 87.1691 629.066 84.6059C626.606 82.0629 624.69 79.1162 623.359 75.8264C622.028 72.5366 621.362 69.0047 621.362 65.2507C621.362 60.2252 622.532 55.6235 624.851 51.4659C627.191 47.2881 630.438 43.9378 634.613 41.3947C638.787 38.8517 643.688 37.5802 649.315 37.5802C654.942 37.5802 659.782 38.8517 663.876 41.3947C667.95 43.9378 671.137 47.2881 673.396 51.4255C675.655 55.563 676.784 60.0234 676.784 64.7865C676.784 64.9681 676.784 65.2709 676.744 65.6342C676.643 67.4506 675.13 68.8634 673.315 68.8634H633.382C633.584 71.9715 634.471 74.7164 636.004 77.0374C637.537 79.3584 639.513 81.195 641.913 82.5271C644.313 83.8591 646.875 84.505 649.638 84.505C652.663 84.505 655.507 83.7582 658.229 82.2445C660.166 81.1748 661.638 79.863 662.687 78.2887C663.473 77.0979 665.026 76.6337 666.397 77.0374L669.08 77.8043C671.399 78.4704 672.387 81.2959 670.895 83.1931C670.088 84.2224 669.161 85.1912 668.112 86.0994C665.752 88.1984 662.949 89.8332 659.722 91.0442C656.495 92.235 653.006 92.8405 649.234 92.8405ZM633.08 61.3352H665.591C665.389 58.3078 664.502 55.6235 662.969 53.3227C661.416 51.0017 659.48 49.1853 657.1 47.8734C654.72 46.5615 652.118 45.8955 649.234 45.8955C646.35 45.8955 643.829 46.5615 641.47 47.8734C639.11 49.1853 637.174 51.0017 635.661 53.3227C634.149 55.6437 633.302 58.3078 633.08 61.3352Z" fill="white"/>
</svg>
